<?xml version="1.0" encoding="UTF-8"?><svg id="Layer_1" xmlns="http://www.w3.org/2000/svg" viewBox="0 0 2026.28 602.55"><defs><style>.cls-1,.cls-2,.cls-3,.cls-4{fill:#ff8d00;}.cls-2{stroke-width:8px;}.cls-2,.cls-5{stroke:#ff8d00;stroke-miterlimit:10;}.cls-6{letter-spacing:0em;}.cls-7{letter-spacing:-.01em;}.cls-3{font-family:MontserratRoman-Medium, Montserrat;font-size:98.14px;font-variation-settings:'wght' 500;font-weight:500;}.cls-8{letter-spacing:0em;}.cls-5{fill:none;stroke-width:25px;}.cls-4{font-family:MontserratRoman-Bold, Montserrat;font-size:200px;font-variation-settings:'wght' 700;font-weight:700;}.cls-9{letter-spacing:0em;}.cls-10{letter-spacing:0em;}.cls-11{letter-spacing:0em;}.cls-12{letter-spacing:-.02em;}.cls-13{letter-spacing:-.01em;}</style></defs><path class="cls-1" d="M309.58,77.75c11.05,10.59,33.91,34.79,48.6,66.12l9.68,20.65,21.45-7.75c30.01-10.85,60.52-12.47,76.03-12.47,1.86,0,3.56.02,5.09.06.32,15.29-.62,48.58-12.38,81.14l-7.75,21.45,20.65,9.68c31.33,14.7,55.52,37.55,66.11,48.6-10.59,11.05-34.79,33.91-66.11,48.6l-20.65,9.68,7.75,21.45c11.77,32.56,12.71,65.85,12.38,81.14-1.52.04-3.23.06-5.09.06-15.51,0-46.01-1.62-76.03-12.47l-21.45-7.75-9.68,20.65c-14.7,31.34-37.55,55.53-48.6,66.12-11.05-10.59-33.9-34.78-48.6-66.12l-9.68-20.64-21.45,7.75c-30.01,10.85-60.52,12.47-76.03,12.47-1.86,0-3.56-.02-5.09-.06-.32-15.29.62-48.58,12.38-81.14l7.75-21.45-20.65-9.68c-31.33-14.69-55.52-37.55-66.11-48.6,10.59-11.05,34.78-33.9,66.11-48.6l20.65-9.68-7.75-21.45c-11.77-32.56-12.71-65.85-12.38-81.14,1.52-.04,3.23-.06,5.09-.06,15.51,0,46.01,1.62,76.03,12.47l21.45,7.75,9.68-20.65c14.7-31.35,37.55-55.53,48.6-66.12M309.58,49.22c-3.41,0-6.83,1.16-9.61,3.48-2.23,1.85-39.53,33.44-61.63,80.54-32.89-11.89-65.68-13.95-84.52-13.95-9.19,0-15.06.49-16.01.58-7.22.65-12.94,6.37-13.59,13.59-.26,2.89-4.3,51.6,13.38,100.53-47.1,22.09-78.69,59.4-80.54,61.63-4.64,5.56-4.64,13.65,0,19.22,1.86,2.22,33.44,39.53,80.54,61.63-17.68,48.93-13.64,97.65-13.38,100.53.65,7.22,6.37,12.93,13.59,13.59.95.09,6.82.58,16.01.58,18.84,0,51.63-2.07,84.52-13.95,22.09,47.1,59.4,78.69,61.63,80.54,2.78,2.32,6.19,3.48,9.61,3.48s6.83-1.16,9.61-3.48c2.22-1.85,39.53-33.44,61.63-80.54,32.89,11.89,65.68,13.95,84.52,13.95,9.19,0,15.06-.49,16.01-.58,7.22-.65,12.94-6.37,13.59-13.59.26-2.88,4.31-51.6-13.38-100.53,47.1-22.09,78.69-59.4,80.54-61.63,4.64-5.57,4.64-13.65,0-19.22-1.86-2.23-33.44-39.53-80.54-61.63,17.68-48.93,13.64-97.64,13.38-100.53-.65-7.22-6.37-12.93-13.59-13.59-.95-.09-6.82-.58-16.01-.58-18.84,0-51.63,2.07-84.52,13.95-22.09-47.1-59.4-78.69-61.63-80.54-2.78-2.32-6.19-3.48-9.61-3.48h0Z"/><circle class="cls-5" cx="309.58" cy="303.79" r="156.99"/><circle class="cls-5" cx="309.83" cy="303.79" r="264.13"/><path class="cls-2" d="M445.59,376.71c-.74-2.26-18.72-55.55-64.74-82.12-9.66-5.58-19.74-9.49-29.65-12.2,2.61-9.93,4.26-20.62,4.26-31.79,0-53.14-37.17-95.35-38.75-97.13-1.5-1.68-3.65-2.64-5.91-2.64s-4.4.96-5.91,2.64c-1.58,1.77-38.75,43.99-38.75,97.13,0,10.86,1.55,21.26,4.04,30.96-9.53,2.93-19.72,7.42-29.43,13.03-46.02,26.57-63.99,79.87-64.74,82.12-.71,2.14-.46,4.48.66,6.44,1.13,1.95,3.03,3.33,5.24,3.79,1.07.22,13.37,2.7,30.83,2.7,20.41,0,47.86-3.38,72.66-17.7,10.11-5.84,18.49-11.86,25.4-18.26,6.91,6.4,15.28,12.42,25.4,18.26,24.8,14.32,52.25,17.7,72.66,17.7,17.46,0,29.76-2.48,30.83-2.7,2.21-.46,4.12-1.84,5.24-3.79,1.13-1.95,1.37-4.29.66-6.44h0ZM310.8,171.57c9.92,13.63,28.82,44.19,28.82,79.03,0,9.93-1.54,19.51-3.96,28.45-20.87-3.36-39.5-2.07-49.91-.77-2.31-8.72-3.76-18.03-3.76-27.68,0-34.83,18.9-65.39,28.82-79.03h0ZM310.8,329.62c-5.48-7.53-13.69-20.23-19.95-35.96,9.09-.91,23.56-1.58,39.63.68-6.23,15.41-14.28,27.86-19.68,35.27h0ZM277.48,358.22c-30.18,17.42-66.11,16.33-82.86,14.55,6.81-15.38,23.77-46.99,54.05-64.47,8.76-5.06,17.87-9.08,26.28-11.64,7.82,20.9,18.95,37.1,25.23,45.26-6.05,5.64-13.53,11-22.68,16.29h0ZM344.11,358.22c-9.15-5.29-16.63-10.65-22.68-16.29,6.19-8.05,17.1-23.92,24.9-44.4,8.95,2.37,18.01,5.82,26.6,10.78,30.18,17.42,47.19,49.09,54.04,64.49-16.73,1.79-52.58,2.91-82.85-14.57h0Z"/><path class="cls-2" d="M344.04,251.69s.05-.03.07-.04c30.28-17.48,66.12-16.36,82.85-14.57-6.26,14.09-21.06,41.81-46.66,59.76,4.82,3.14,9.34,6.4,13.53,9.73,36.45-28.02,51.08-71.38,51.75-73.41.71-2.14.46-4.48-.66-6.44-1.13-1.95-3.03-3.33-5.24-3.79-1.07-.22-13.38-2.7-30.83-2.7-18.37,0-42.45,2.75-65.17,13.74.38,5.72.51,11.65.36,17.72Z"/><path class="cls-2" d="M339.51,363.6c-1.47,33.02-19.21,61.62-28.71,74.69h0c-9.52-13.09-27.33-41.81-28.72-74.92-5.13,3.24-10.23,6.12-15.24,8.61,5.11,47.01,36.6,82.79,38.05,84.41,1.5,1.68,3.65,2.64,5.91,2.64s4.4-.96,5.91-2.64c1.48-1.66,34.1-38.71,38.31-86.99-5.08-1.64-10.26-3.58-15.5-5.8Z"/><path class="cls-2" d="M229.68,308.02c3.47-3.85,7.22-7.67,11.24-11.43-25.46-18-40.1-45.48-46.3-59.5,14.46-1.53,43.21-2.54,70.22,8.41.5-5.57,1.22-10.98,2.12-16.19-19.3-7.14-38.77-9.08-54.21-9.08-17.46,0-29.76,2.48-30.83,2.7-2.21.46-4.12,1.84-5.24,3.79-1.13,1.95-1.37,4.29-.66,6.44.68,2.07,15.81,46.91,53.68,74.86Z"/><text class="cls-4" transform="translate(621.9 257.84)"><tspan x="0" y="0">BE</tspan><tspan class="cls-8" x="287.2" y="0">T</tspan><tspan x="412.8" y="0">TER SELF</tspan></text><text class="cls-3" transform="translate(629.56 374.31)"><tspan x="0" y="0">BIOH</tspan><tspan class="cls-10" x="266.84" y="0">A</tspan><tspan x="337.7" y="0">CKING & </tspan><tspan class="cls-7" x="785.21" y="0">L</tspan><tspan x="842.23" y="0">ONG</tspan><tspan class="cls-9" x="1080.12" y="0">E</tspan><tspan class="cls-13" x="1144.89" y="0">V</tspan><tspan x="1213.29" y="0">I</tspan><tspan class="cls-6" x="1243.71" y="0">T</tspan><tspan x="1300.54" y="0">Y</tspan><tspan class="cls-12" x="0" y="117.77">C</tspan><tspan x="69.48" y="117.77">ONFERENCE </tspan><tspan class="cls-11" x="739.58" y="117.77">2</tspan><tspan x="795.81" y="117.77">025</tspan></text></svg>