<svg version="1.2" xmlns="http://www.w3.org/2000/svg" viewBox="0 0 1742 214" width="488" height="60"><style>.a{fill:#1c1c1c}.b{fill:#129160}</style><path class="a" d="m7.5 16.2q-0.1-0.3-0.1-0.6-0.1-0.3-0.1-0.6-0.1-0.3-0.1-0.6 0-0.3 0-0.6 0-0.5 0-1 0-0.4 0.1-0.9 0.1-0.5 0.3-0.9 0.1-0.5 0.3-0.9c0.8-1.9 2.5-2.8 5-2.8h33.4q0.7-0.1 1.4 0 0.7 0 1.3 0.2 0.7 0.1 1.4 0.2 0.7 0.2 1.3 0.5 0.5 0.2 1.1 0.4 0.5 0.3 0.9 0.6 0.5 0.4 0.9 0.8 0.4 0.4 0.7 0.8 0.3 0.4 0.6 0.8 0.2 0.3 0.5 0.7 0.2 0.4 0.4 0.8 0.3 0.4 0.5 0.7 0.2 0.5 0.3 0.9 0.2 0.4 0.3 0.8 0.2 0.4 0.3 0.8 0.1 0.4 0.3 0.8l30.2 103.5 29.2-103.5q2.7-9.8 10.4-9.8h21.3c5 0 8.3 3.2 10.1 9.8l29.5 103.5 30.2-103.5q2.4-9.8 12.2-9.8h32.2q3.7 0 4.8 2.8 0.2 0.4 0.4 0.8 0.1 0.4 0.2 0.8 0.1 0.4 0.2 0.8 0 0.4 0 0.8 0 0.4 0 0.8-0.1 0.3-0.1 0.7-0.1 0.3-0.2 0.7-0.1 0.3-0.2 0.7l-55.9 185.1q-0.1 0.2-0.1 0.5-0.1 0.2-0.2 0.4 0 0.3-0.1 0.5-0.1 0.2-0.2 0.4-0.2 0.4-0.5 0.8-0.3 0.4-0.6 0.8-0.3 0.3-0.7 0.6-0.3 0.4-0.7 0.7-0.5 0.4-1.1 0.7-0.6 0.4-1.3 0.6-0.6 0.2-1.3 0.3-0.7 0.2-1.4 0.1h-25.6q-0.8 0.1-1.6 0-0.8-0.1-1.6-0.4-0.7-0.2-1.4-0.5-0.8-0.4-1.4-0.8-0.5-0.4-1-0.8-0.4-0.4-0.8-0.8-0.4-0.5-0.8-1-0.3-0.5-0.6-1l-0.6-1.6-30.4-97.2-30.5 97.2q0 0.2-0.1 0.5-0.1 0.2-0.2 0.4-0.1 0.3-0.2 0.5-0.1 0.3-0.2 0.5-0.3 0.4-0.7 0.9-0.3 0.4-0.7 0.8-0.4 0.4-0.8 0.7-0.4 0.4-0.8 0.7-0.7 0.5-1.4 0.9-0.7 0.3-1.5 0.6-0.7 0.2-1.5 0.3-0.8 0.2-1.6 0.1h-26.8q-0.7 0.1-1.3 0-0.7-0.1-1.3-0.3-0.7-0.2-1.3-0.6-0.6-0.3-1.1-0.7-0.4-0.3-0.8-0.6-0.4-0.4-0.7-0.8-0.3-0.4-0.6-0.8-0.3-0.4-0.5-0.9l-0.6-1.6z"/><path class="a" d="m283.2 199v-182.8c0-3 0.6-5.2 1.9-6.7q2-2.2 6.8-2.2h131.4q4.9 0 6.8 2.2c1.3 1.5 1.9 3.7 1.9 6.6v25.1c0 3-0.6 5.2-1.9 6.6-1.3 1.4-3.6 2.1-6.8 2.1h-92.4v33.5h81.9q4.9 0 6.9 2.2 1.9 2.3 1.9 6.7v23.8c0 3-0.6 5.2-1.9 6.7-1.3 1.4-3.6 2.1-6.9 2.1h-81.9v40.2h97.4q4.9 0 6.9 2.2 2 2.2 2 6.7v25c0 3-0.6 5.2-1.9 6.6q-1.9 2.2-7 2.2h-136.3q-4.9-0.1-6.8-2.2c-1.3-1.4-2-3.7-2-6.6z"/><path class="a" d="m455.6 199v-183.1c0-3 0.6-5.2 1.9-6.7q2-2.2 6.9-2.2h85.3q18 0 32 4.5 14 4.5 22.3 12.3 2 1.8 3.8 3.8 1.8 2.1 3.4 4.3 1.6 2.2 2.9 4.5 1.4 2.4 2.5 4.9 1.1 2.4 1.9 5 0.8 2.5 1.3 5.1 0.5 2.6 0.8 5.3 0.3 2.6 0.2 5.3 0.1 2-0.1 4-0.1 2.1-0.4 4.1-0.3 2-0.7 4-0.4 2-0.9 3.9-0.4 1.5-1 3.1-0.5 1.5-1.1 2.9-0.6 1.5-1.3 2.9-0.8 1.5-1.6 2.8-0.6 1.1-1.4 2.1-0.7 1-1.5 2-0.8 1-1.6 1.9-0.9 0.9-1.8 1.8-0.6 0.6-1.3 1.2-0.7 0.7-1.3 1.2-0.7 0.6-1.4 1.1-0.8 0.6-1.5 1.1c-1.3 0.7-2.5 1.3-3.5 1.8q1.5 0.6 3.9 1.9 0.9 0.5 1.8 1.1 0.9 0.6 1.8 1.3 0.8 0.6 1.7 1.3 0.8 0.6 1.6 1.3 1.1 1 2.2 2 1.1 1 2.1 2.1 1 1.1 2 2.2 0.9 1.1 1.8 2.3 1 1.5 1.9 3 0.9 1.5 1.7 3.1 0.8 1.6 1.5 3.3 0.6 1.6 1.2 3.3 0.7 2.1 1.2 4.2 0.5 2.1 0.9 4.3 0.3 2.1 0.5 4.3 0.2 2.2 0.1 4.4 0 28.2-19.7 43.3-19.8 15.1-52.7 15.1h-89.5q-4.9 0-6.9-2.1c-1.2-1.5-1.9-3.7-1.9-6.6zm47.8-34.5h51.1c15.6 0 23.5-6.6 23.5-19.8q0-18.6-25.3-18.6h-7q-5.1 0-7-2.1-1.9-2.2-1.9-6.6v-23.3c0-3 0.6-5.1 1.9-6.6 1.3-1.4 3.6-2.1 7-2.1h3.9q25.2 0 25.3-18.5 0-9.7-6.3-13.5c-4.1-2.5-10.5-3.7-19-3.7h-46.2z"/><path class="a" d="m639.8 147.8q0-5.2 1.8-6.9 1.8-1.7 7.1-1.7h29.4q5.7 0 8.1 1.6 2.5 1.7 2.9 7c0.3 4.3 2.2 8.4 5.8 12.5 5.6 6.6 15.5 10 29.9 10q1.4 0 2.9 0 1.5-0.1 2.9-0.2 1.5-0.1 2.9-0.3 1.5-0.1 2.9-0.4 1.2-0.2 2.4-0.5 1.2-0.3 2.4-0.6 1.2-0.4 2.3-0.9 1.1-0.4 2.2-1 1.1-0.5 2-1.1 1-0.7 1.8-1.5 0.8-0.8 1.5-1.7 0.7-1 1.3-2 0.6-1.2 1-2.5 0.4-1.3 0.7-2.6 0.3-1.3 0.4-2.6 0.1-1.4 0.1-2.7 0-1.1-0.2-2.3-0.1-1.1-0.5-2.2-0.3-1-0.9-2-0.5-1-1.2-1.9-0.9-1-1.9-1.9-1-0.8-2.1-1.5-1.1-0.8-2.2-1.3-1.2-0.6-2.5-1-1.4-0.6-2.8-1.1-1.4-0.5-2.9-1-1.4-0.4-2.9-0.9-1.4-0.4-2.9-0.8-5.7-1.5-14.8-3.6c-6-1.4-11.1-2.8-15.1-4.1q-10.9-3.4-18.2-6.4-2-0.8-4-1.8-2-0.9-4-1.9-2-1-3.9-2.1-1.9-1-3.8-2.2-1.9-1.1-3.7-2.3-1.8-1.2-3.5-2.6-1.7-1.4-3.2-2.9-1.6-1.5-3-3.2-1.4-1.7-2.6-3.4-1.3-1.8-2.3-3.7-1.1-1.9-2-3.9-0.9-1.9-1.6-4-0.8-2.4-1.5-4.9-0.6-2.5-1-5-0.5-2.6-0.6-5.2-0.2-2.5-0.2-5.1c-0.1-4.4 0.4-8.7 1.4-12.9 0.9-4.3 2.4-8.4 4.4-12.3 2-3.8 4.4-7.5 7.3-10.7 2.9-3.3 6.1-6.2 9.7-8.7q2.7-1.9 5.5-3.5 2.8-1.7 5.8-3.1 2.9-1.4 6-2.6 3-1.2 6.2-2.1 3.3-1.1 6.7-1.9 3.5-0.8 6.9-1.3 3.5-0.6 7-1 3.5-0.3 7-0.4 2.9 0 5.9 0.1 2.9 0.1 5.8 0.4 2.9 0.2 5.8 0.6 2.9 0.4 5.8 0.9 2.8 0.6 5.6 1.2 2.8 0.7 5.6 1.6 2.7 0.8 5.4 1.8 2.7 1 5.4 2.2 2.5 1.1 4.9 2.3 2.4 1.3 4.7 2.7 2.3 1.4 4.5 2.9 2.2 1.6 4.3 3.3 2 1.7 3.8 3.6 1.8 1.9 3.4 3.9 1.5 2.1 2.9 4.3 1.4 2.2 2.5 4.6 1.2 2.4 2.1 5.1 0.9 2.6 1.5 5.3 0.6 2.7 0.9 5.4 0.3 2.7 0.3 5.5 0 5.4-1.7 6.9-1.8 1.6-7 1.6h-30q-0.2 0-0.5 0-0.2 0-0.5-0.1-0.2 0-0.5 0-0.2-0.1-0.4-0.1-0.9-0.3-1.6-0.5-0.2-0.1-0.4-0.1-0.1-0.1-0.3-0.2-0.1-0.2-0.3-0.3-0.1-0.1-0.3-0.3l-0.9-1q-0.1-0.1-0.2-0.3-0.1-0.2-0.2-0.3-0.1-0.2-0.2-0.4-0.1-0.1-0.2-0.3-0.1-0.2-0.1-0.3-0.1-0.2-0.2-0.4-0.1-0.1-0.1-0.3-0.1-0.2-0.2-0.4 0-0.1-0.1-0.3 0-0.2-0.1-0.4-0.1-0.2-0.1-0.4-0.1-0.2-0.2-0.4 0-0.2-0.1-0.4-0.1-0.2-0.1-0.3-0.1-0.2-0.2-0.4-0.1-0.2-0.2-0.3-1.1-2.9-2.9-5.3-1.8-2.5-4.1-4.5-2.3-2-5.1-3.4-2.7-1.4-5.7-2.1-1.7-0.5-3.5-0.9-1.8-0.4-3.6-0.7-1.8-0.3-3.7-0.4-1.8-0.1-3.7-0.1-1.4 0-2.9 0.1-1.4 0.1-2.9 0.2-1.4 0.2-2.8 0.5-1.5 0.2-2.9 0.6-1.5 0.4-2.9 0.9-1.4 0.6-2.7 1.3-1.3 0.7-2.6 1.6-1.2 0.8-2.3 1.8-1.2 1-2.1 2.2-0.9 1.2-1.6 2.6-0.6 1.4-0.9 2.9-0.3 1.5-0.3 3 0 5.2 4.6 9.7 1.4 1.3 2.8 2.4 1.4 1.1 2.9 2 1.6 1 3.2 1.8 1.6 0.8 3.3 1.5 7.4 3.1 14.8 5.3c4.8 1.5 9.8 3 15 4.4q7.7 2 10.4 3.1 20 6.1 28.6 11 25.8 14.5 25.8 45.9 0 21.1-10.6 35.7-2.7 3.7-5.9 6.9-3.2 3.2-6.8 5.9-3.6 2.7-7.6 4.9-4 2.2-8.3 3.7c-11.9 4.6-25.9 6.9-41.8 6.9q-2.9-0.1-5.9-0.2-2.9-0.2-5.8-0.5-2.9-0.3-5.7-0.8-2.9-0.4-5.8-1.1-2.9-0.6-5.7-1.4-2.8-0.9-5.6-1.9-2.8-1-5.5-2.1-2.7-1.2-5.3-2.6-2.6-1.3-5-2.7-2.5-1.4-4.9-3.1-2.3-1.6-4.6-3.3-2.2-1.8-4.3-3.7-2.1-1.9-4-4-1.8-2.1-3.5-4.4-1.6-2.3-3-4.7-1.4-2.5-2.5-5-1.2-2.8-2.2-5.6-0.9-2.8-1.5-5.7-0.6-2.9-0.9-5.9-0.3-2.9-0.3-5.9z"/><path class="a" d="m805 41.2v-25.1c0-3 0.7-5.1 2-6.6q2-2.2 6.9-2.2h141.4c3.4 0 5.6 0.7 6.9 2.2 1.3 1.5 2 3.7 2 6.6v25.1c0 3-0.7 5.2-2 6.6-1.2 1.4-3.6 2.1-6.9 2.1h-46.6v149.1q0 4.9-2.3 6.9-2.2 1.9-6.6 1.9h-30.1q-4.5 0-6.6-1.9-2.2-2-2.2-6.9v-149h-47q-5.1 0-7-2.1c-1.2-1.5-1.9-3.7-1.9-6.7z"/><path class="a" d="m1107.1 41.2v-25.1c0-3 0.6-5.1 2-6.6q2-2.2 6.9-2.2h141.4c3.3 0 5.6 0.7 6.9 2.2q2 2.2 1.9 6.6v25.1c0 3-0.6 5.2-1.9 6.6-1.3 1.4-3.6 2.1-6.9 2.1h-46.6v149.1q0 4.9-2.3 6.9-2.2 1.9-6.6 1.9h-30.1q-4.5 0-6.6-1.9-2.2-2-2.2-6.9v-149h-47q-5.1 0-7-2.1c-1.3-1.5-1.9-3.7-1.9-6.7z"/><path class="a" d="m1384.4 143.5v-71.8q-0.1-3.3 0.2-6.6 0.3-3.3 1-6.5 0.6-3.3 1.6-6.4 0.9-3.2 2.2-6.2 1.1-2.7 2.5-5.4 1.4-2.6 3.1-5 1.7-2.5 3.6-4.7 1.9-2.3 4-4.4 2.1-2 4.3-3.8 2.3-1.8 4.7-3.5 2.3-1.7 4.8-3.2 2.5-1.5 5.1-2.8 2.6-1.3 5.3-2.5 2.6-1.2 5.4-2.2 2.7-1 5.5-1.8 2.8-0.9 5.7-1.5 5.5-1.2 11.1-1.8 5.7-0.6 11.3-0.6 5.7 0 11.3 0.6 5.6 0.6 11.1 1.8 2.9 0.6 5.7 1.5 2.9 0.8 5.6 1.8 2.8 1 5.5 2.2 2.7 1.2 5.3 2.5 2.6 1.3 5.1 2.8 2.5 1.5 4.9 3.2 2.4 1.7 4.6 3.5 2.3 1.8 4.4 3.8 2.1 2.1 4.1 4.4 1.9 2.2 3.6 4.7 1.6 2.4 3 5 1.5 2.7 2.6 5.4 1.3 3 2.3 6.2 0.9 3.1 1.6 6.4 0.6 3.2 0.9 6.5 0.3 3.3 0.3 6.6v71.8q0 3.3-0.3 6.6-0.3 3.2-0.9 6.5-0.7 3.2-1.6 6.4-1 3.1-2.3 6.2-1.1 2.7-2.5 5.3-1.5 2.6-3.1 5.1-1.7 2.4-3.6 4.7-1.9 2.3-4.1 4.3-2.1 2-4.3 3.9-2.3 1.8-4.7 3.5-2.4 1.6-4.9 3.1-2.5 1.5-5.1 2.8-2.6 1.4-5.3 2.6-2.7 1.2-5.4 2.2-2.8 1-5.6 1.8-2.9 0.8-5.7 1.4-5.6 1.3-11.2 1.9-5.6 0.6-11.3 0.6-5.6 0-11.2-0.6-5.6-0.6-11.2-1.9-2.8-0.6-5.6-1.4-2.8-0.8-5.6-1.8-2.7-1-5.4-2.2-2.7-1.2-5.3-2.6-2.6-1.3-5.1-2.8-2.4-1.5-4.8-3.1-2.4-1.7-4.6-3.5-2.3-1.9-4.4-3.9-2.1-2-4-4.3-1.9-2.3-3.6-4.7-1.6-2.5-3.1-5.1-1.4-2.6-2.5-5.4-1.3-3-2.2-6.1-1-3.2-1.6-6.4-0.7-3.3-1-6.5-0.3-3.3-0.2-6.6zm47.7-4.6q0 14.4 9.3 22.6 9.3 8.2 24.4 8.2c10.1 0 18.4-2.8 24.7-8.2 6.3-5.4 9.4-13 9.4-22.6v-63.3q0-14.4-9.4-22.5-9.4-8.2-24.7-8.2-15.1 0-24.4 8.2c-6.2 5.4-9.3 13-9.3 22.5z"/><path class="a" d="m1571.3 199v-182.8c0-3 0.6-5.2 1.9-6.7q2-2.2 6.8-2.2h28.6q1.3-0.1 2.7 0.2 1.3 0.3 2.5 0.8 1.2 0.6 2.3 1.3 1.1 0.8 2 1.8c0.8 1 1.9 2.7 3.4 4.9 0.4 0.6 0.7 1 0.9 1.4l64.6 104.1v-105.6q0-5.1 2.1-7c1.5-1.3 3.7-1.9 6.7-1.9h29.3c3 0 5.1 0.6 6.6 1.9 1.4 1.3 2.1 3.6 2.1 7v182.8c0 3-0.6 5.2-1.9 6.6q-1.9 2.2-6.8 2.2h-27.8q-0.3 0-0.6 0-0.3 0-0.6-0.1-0.3 0-0.6 0-0.3 0-0.6-0.1-0.2 0-0.5-0.1-0.3 0-0.5-0.1-0.3 0-0.5-0.1-0.3-0.1-0.5-0.2-1-0.4-1.7-0.6-0.2-0.1-0.4-0.2-0.2-0.1-0.4-0.3-0.2-0.1-0.3-0.3-0.2-0.1-0.4-0.3-0.1-0.2-0.3-0.3-0.1-0.2-0.3-0.3-0.1-0.2-0.3-0.3-0.1-0.2-0.3-0.3-0.2-0.2-0.4-0.3-0.2-0.2-0.3-0.4-0.2-0.2-0.3-0.4-0.2-0.2-0.3-0.4c-0.5-0.8-0.9-1.3-1.1-1.5q-0.3-0.4-1.3-1.9-1-1.5-1.2-1.9l-64.6-104.5v106.1q0 4.9-2.2 6.8-2.1 2-6.6 2h-30.2c-3 0-5.2-0.7-6.6-2-1.5-1.2-2.1-3.6-2.1-6.8z"/><path fill-rule="evenodd" class="b" d="m1348.4 127.8c-12.8 12.8-33.3 13-45.9 0.4-12.6-12.6-12.5-33.1 0.3-45.9 12.8-12.8 33.3-13 45.9-0.4 12.6 12.6 12.4 33.1-0.3 45.9z"/><path fill-rule="evenodd" class="b" d="m1325.6 63.9c-17.8 0-32.2-14.6-32.2-32.7 0-18.1 14.4-32.7 32.2-32.7 17.8 0 32.2 14.6 32.2 32.7 0 18.1-14.4 32.7-32.2 32.7z"/><path fill-rule="evenodd" class="b" d="m1325.6 210.6c-18.1 0-32.7-14.4-32.7-32.2 0-17.8 14.6-32.2 32.7-32.2 18.1 0 32.7 14.4 32.7 32.2 0 17.8-14.6 32.2-32.7 32.2z"/><path class="a" d="m1129.5 199.3l-67.3-182.5q-2.1-5.1-4.9-7.3c-1.8-1.5-4.4-2.2-7.6-2.2h-29.2q-1-0.1-2.1 0-1 0.1-2 0.4-1 0.3-1.9 0.8-1 0.5-1.8 1.1-0.8 0.7-1.5 1.5-0.7 0.8-1.3 1.8-0.6 0.9-1.1 1.9-0.4 0.9-0.8 2l-67.6 182.5q-0.3 0.4-0.5 0.8-0.2 0.4-0.3 0.8-0.1 0.4-0.2 0.9 0 0.4 0 0.9 0 0.3 0.1 0.6 0 0.2 0.1 0.5 0.1 0.3 0.2 0.6 0.1 0.3 0.2 0.5c0.7 1.9 2.6 2.8 5.6 2.8h32q5 0 7.4-1.8 2.4-1.9 4.2-7.2l8.5-24.1h42.5q0.1 0 0.3 0 0.1 0 0.2 0 0.1 0 0.2 0 0.1 0 0.2 0h4q5.3 0 6.5-2.3 1.3-2.3-0.3-6.9l-8.5-24.4q-0.3-1-0.8-1.9-0.4-1-1-1.9-0.5-0.8-1.2-1.6-0.7-0.8-1.5-1.5-2.8-2.3-8.1-2.3h-6.1-11.9l22.9-67.4 22.8 67.4h-0.1l16.1 47.4 6.9 19.4c1.1 3.6 2.5 6 4.1 7.2 1.6 1.2 4 1.9 7.5 1.9h32q4.4 0 5.6-2.9 0.2-0.2 0.3-0.5 0.1-0.3 0.2-0.5 0-0.3 0.1-0.6 0-0.3 0-0.6 0-0.4-0.1-0.9-0.1-0.4-0.2-0.8-0.1-0.5-0.3-0.9-0.2-0.4-0.5-0.7z"/></svg>